<?xml version="1.0" encoding="UTF-8" standalone="no"?> <!-- Created with Vectornator for iOS (http://vectornator.io/) --><!DOCTYPE svg PUBLIC "-//W3C//DTD SVG 1.1//EN" "http://www.w3.org/Graphics/SVG/1.1/DTD/svg11.dtd">
<svg height="100%" style="fill-rule:nonzero;clip-rule:evenodd;stroke-linecap:round;stroke-linejoin:round;" xmlns:xlink="http://www.w3.org/1999/xlink" xmlns="http://www.w3.org/2000/svg" xml:space="preserve" width="100%" xmlns:vectornator="http://vectornator.io" version="1.1" viewBox="0 0 150 150">
<metadata>
<vectornator:setting key="DimensionsVisible" value="1"/>
<vectornator:setting key="PencilOnly" value="1"/>
<vectornator:setting key="SnapToPoints" value="0"/>
<vectornator:setting key="GuidesVisible" value="1"/>
<vectornator:setting key="CMYKEnabledKey" value="0"/>
<vectornator:setting key="RulersVisible" value="1"/>
<vectornator:setting key="SnapToEdges" value="0"/>
<vectornator:setting key="OutlineMode" value="0"/>
<vectornator:setting key="DisplayWhiteBackground" value="1"/>
<vectornator:setting key="doHistoryDisabled" value="0"/>
<vectornator:setting key="TimeLapseWatermarkDisabled" value="0"/>
<vectornator:setting key="SnapToGuides" value="1"/>
<vectornator:setting key="Units" value="Pixels"/>
<vectornator:setting key="DynamicGuides" value="1"/>
<vectornator:setting key="SnapToGrid" value="0"/>
<vectornator:setting key="IsolateActiveLayer" value="0"/>
</metadata>
<defs/>
<g id="Layer 1" vectornator:layerName="Layer 1">
<path d="M100.518+33.0315C83.5582+33.704+74.1843+45.5498+74.1843+45.5498C74.1843+45.5498+64.8105+33.704+47.8509+33.0315C36.4785+32.5812+26.0528+38.0749+19.1848+46.8827C-4.71076+77.5268+40.5312+113.376+51.1735+123.001C57.5403+128.759+65.3983+135.597+70.0883+139.65C72.4333+141.679+75.9292+141.679+78.2742+139.65C82.9642+135.597+90.8221+128.759+97.1889+123.001C107.831+113.376+153.079+77.5268+129.178+46.8827C122.316+38.0749+111.89+32.5812+100.518+33.0315Z" opacity="1" fill="#7400b8"/>
<g opacity="1">
<path d="M176.968+109.871L176.968+110.726L174.551+110.726L174.551+117.044L173.565+117.044L173.565+110.726L171.148+110.726L171.148+109.871L176.968+109.871Z" opacity="1" fill="#10daec"/>
<path d="M178.809+111.697C179.18+111.697+179.54+111.785+179.888+111.959C180.236+112.133+180.502+112.358+180.684+112.635C180.86+112.899+180.977+113.206+181.035+113.558C181.088+113.799+181.114+114.183+181.114+114.71L177.281+114.71C177.297+115.241+177.422+115.666+177.657+115.987C177.891+116.308+178.254+116.468+178.745+116.468C179.204+116.468+179.571+116.317+179.844+116.014C180+115.838+180.111+115.635+180.176+115.404L181.04+115.404C181.018+115.596+180.942+115.81+180.813+116.046C180.685+116.282+180.541+116.474+180.381+116.624C180.114+116.885+179.784+117.06+179.39+117.152C179.178+117.204+178.939+117.23+178.672+117.23C178.021+117.23+177.469+116.993+177.017+116.519C176.564+116.046+176.338+115.382+176.338+114.529C176.338+113.69+176.566+113.008+177.022+112.484C177.477+111.959+178.073+111.697+178.809+111.697ZM180.21+114.012C180.174+113.631+180.091+113.327+179.961+113.099C179.72+112.676+179.318+112.464+178.755+112.464C178.352+112.464+178.013+112.61+177.74+112.901C177.466+113.192+177.321+113.563+177.305+114.012L180.21+114.012Z" opacity="1" fill="#10daec"/>
<path d="M181.695+111.815L182.832+111.815L184.033+113.655L185.249+111.815L186.319+111.839L184.556+114.363L186.397+117.044L185.274+117.044L183.975+115.081L182.715+117.044L181.602+117.044L183.443+114.363L181.695+111.815Z" opacity="1" fill="#10daec"/>
<path d="M178.199+121.855L179.087+121.855L179.087+123.315L179.922+123.315L179.922+124.032L179.087+124.032L179.087+127.445C179.087+127.628+179.149+127.75+179.273+127.812C179.341+127.848+179.455+127.865+179.615+127.865C179.657+127.865+179.702+127.865+179.751+127.863C179.8+127.861+179.857+127.857+179.922+127.851L179.922+128.544C179.821+128.573+179.716+128.595+179.607+128.608C179.498+128.621+179.38+128.627+179.253+128.627C178.843+128.627+178.565+128.522+178.418+128.312C178.272+128.102+178.199+127.83+178.199+127.494L178.199+124.032L177.491+124.032L177.491+123.315L178.199+123.315L178.199+121.855Z" opacity="1" fill="#10daec"/>
</g>
<g opacity="1">
<path d="M42.4633+67.6378L42.4633+64.8625L48.5883+64.8625L48.5883+77.5431L42.4633+77.5431C40.6609+72.9653+37.6542+70.6764+33.4433+70.6764C31.3538+70.6764+29.4995+71.2187+27.8806+72.3034C26.2616+73.388+25.0015+74.8674+24.1003+76.7416C23.1991+78.6158+22.7485+80.6933+22.7485+82.9743C22.7485+85.1116+23.1752+87.0696+24.0285+88.848C24.8819+90.6265+26.0742+92.0461+27.6054+93.1068C29.1367+94.1675+30.8992+94.6979+32.893+94.6979C35.3494+94.6979+37.4828+93.8485+39.2932+92.1498C41.1035+90.4511+42.3198+88.214+42.9418+85.4386L50.0478+88.8122C47.3681+97.1702+41.4265+101.349+32.2231+101.349C28.2674+101.349+24.8101+100.592+21.8513+99.0763C18.8924+97.561+16.6155+95.4077+15.0205+92.6164C13.4254+89.825+12.6279+86.5631+12.6279+82.8307C12.6279+79.3056+13.4493+76.1315+15.0922+73.3083C16.7351+70.485+19.0041+68.2719+21.8991+66.6688C24.7941+65.0658+28.0361+64.2643+31.625+64.2643C35.9794+64.2643+39.5922+65.3888+42.4633+67.6378Z" opacity="1" fill="#10daec"/>
<path d="M69.8583+67.8532L69.8583+64.8625L75.9833+64.8625L75.9833+75.7726L69.8583+75.7726C69.6031+74.0181+69.0329+72.6981+68.1477+71.8129C67.2624+70.9276+66.118+70.485+64.7143+70.485C63.7254+70.485+62.88+70.7641+62.1782+71.3224C61.4764+71.8807+61.1254+72.5825+61.1254+73.4279C61.1254+74.1776+61.3487+74.8236+61.7954+75.3659C62.242+75.9082+62.8162+76.3668+63.518+76.7416C64.2198+77.1164+65.2726+77.6149+66.6762+78.237L68.1357+78.859C71.3098+80.2308+73.7064+81.8418+75.3254+83.692C76.9444+85.5423+77.7539+87.8551+77.7539+90.6305C77.7539+93.9323+76.8048+96.5442+74.9067+98.4662C73.0086+100.388+70.4565+101.349+67.2504+101.349C64.1241+101.349+61.6917+100.177+59.9531+97.8322L59.9531+100.919L53.8281+100.919L53.8281+88.6686L59.9531+88.6686C60.0807+90.79+60.627+92.405+61.592+93.5136C62.557+94.6221+63.861+95.1764+65.5039+95.1764C66.6044+95.1764+67.5336+94.8016+68.2912+94.0519C69.0489+93.3022+69.4277+92.3931+69.4277+91.3244C69.4277+90.2397+68.993+89.2468+68.1237+88.3456C67.2544+87.4444+65.775+86.5392+63.6855+85.63C60.1285+84.0669+57.5485+82.3841+55.9455+80.5817C54.3425+78.7793+53.541+76.7057+53.541+74.361C53.541+72.5267+53.9637+70.8519+54.809+69.3366C55.6544+67.8213+56.8228+66.629+58.3142+65.7597C59.8055+64.8904+61.4285+64.4557+63.1831+64.4557C64.5867+64.4557+65.8627+64.7428+67.0112+65.317C68.1596+65.8913+69.1087+66.7366+69.8583+67.8532Z" opacity="1" fill="#10daec"/>
<path d="M115.198+64.8625L133.621+64.8625L133.621+70.9875L128.955+70.9875L128.955+94.7936L133.621+94.7936L133.621+100.919L115.437+100.919L115.437+94.7936L119.791+94.7936L119.791+70.9875L118.954+70.9875L107.781+100.919L103.929+100.919L92.6118+70.9875L91.7744+70.9875L91.7744+94.7936L96.416+94.7936L96.416+100.919L81.1752+100.919L81.1752+94.7936L85.8886+94.7936L85.8886+70.9875L81.1752+70.9875L81.1752+64.8625L99.311+64.8625L107.206+85.965L115.198+64.8625Z" opacity="1" fill="#10daec"/>
</g>
</g>
</svg>
